<svg width="221" height="221" viewBox="0 0 221 221" fill="none" xmlns="http://www.w3.org/2000/svg">
<path d="M27.5508 106.596C27.5508 91.5675 31.3078 77.6445 38.7481 64.9002C46.1885 52.1558 56.2808 42.0635 69.0251 34.6232C81.7695 27.1828 95.6188 23.4995 110.573 23.4995C121.77 23.4995 132.526 25.7095 142.765 30.0558C153.005 34.4022 161.771 40.3692 169.212 47.7358C176.652 55.1025 182.545 63.9425 186.892 74.2558C191.238 84.5692 193.448 95.2509 193.448 106.596C193.448 117.793 191.238 128.548 186.892 138.788C182.545 149.028 176.578 157.868 169.212 165.234C161.845 172.601 153.005 178.494 142.765 182.841C132.526 187.187 121.844 189.397 110.573 189.397C99.3021 189.397 88.4731 187.187 78.2335 182.841C67.9938 178.494 59.1538 172.527 51.7134 165.161C44.2731 157.794 38.4534 148.954 34.0334 138.788C29.6134 128.622 27.5508 117.867 27.5508 106.596ZM45.8201 106.596C45.8201 124.055 52.1555 139.23 64.8998 152.122C77.6441 164.866 92.8195 171.201 110.573 171.201C122.212 171.201 133.041 168.328 142.913 162.509C152.784 156.689 160.74 148.88 166.56 138.935C172.379 128.99 175.326 118.235 175.326 106.596C175.326 94.9562 172.379 84.1272 166.56 74.1822C160.74 64.2372 152.858 56.3548 142.913 50.5352C132.968 44.7155 122.212 41.8425 110.573 41.8425C98.9338 41.8425 88.1048 44.7155 78.2335 50.5352C68.3621 56.3548 60.4061 64.2372 54.5128 74.1822C48.6195 84.1272 45.8201 94.9562 45.8201 106.596ZM104.164 106.596V57.5335C104.164 55.8392 104.753 54.3658 105.932 53.1872C107.111 52.0085 108.584 51.4192 110.278 51.4192C111.899 51.4192 113.372 52.0085 114.625 53.1872C115.877 54.3658 116.466 55.8392 116.466 57.5335V83.5378L121.991 73.9612C122.875 72.4878 124.128 71.6038 125.822 71.1618C127.516 70.7198 129.063 70.9408 130.537 71.8248C132.01 72.6352 132.894 73.8138 133.41 75.5082C133.925 77.2025 133.704 78.6758 132.82 80.1492L115.951 108.953C114.993 111.531 113.151 112.857 110.352 112.857C108.658 112.857 107.184 112.268 106.006 111.089C104.827 109.911 104.164 108.364 104.164 106.596Z" fill="#8C8745"/>
</svg>
