<svg width="199" height="199" viewBox="0 0 199 199" fill="none" xmlns="http://www.w3.org/2000/svg">
<path d="M99.5006 16.5835C145.296 16.5835 182.417 53.7053 182.417 99.5002C182.417 145.295 145.296 182.417 99.5006 182.417C53.7058 182.417 16.584 145.295 16.584 99.5002C16.584 53.7053 53.7058 16.5835 99.5006 16.5835ZM99.5006 33.1668C81.908 33.1668 65.0358 40.1555 52.5959 52.5954C40.156 65.0353 33.1673 81.9075 33.1673 99.5002C33.1673 117.093 40.156 133.965 52.5959 146.405C65.0358 158.845 81.908 165.833 99.5006 165.833C117.093 165.833 133.965 158.845 146.405 146.405C158.845 133.965 165.834 117.093 165.834 99.5002C165.834 81.9075 158.845 65.0353 146.405 52.5954C133.965 40.1555 117.093 33.1668 99.5006 33.1668ZM99.5006 49.7502C101.532 49.7504 103.492 50.496 105.009 51.8456C106.527 53.1951 107.497 55.0547 107.734 57.0717L107.792 58.0418V96.0674L130.238 118.513C131.725 120.005 132.588 122.007 132.653 124.113C132.717 126.219 131.977 128.27 130.584 129.85C129.191 131.43 127.248 132.421 125.151 132.62C123.054 132.82 120.959 132.214 119.293 130.926L118.513 130.237L93.6384 105.362C92.3497 104.073 91.5221 102.394 91.2836 100.586L91.209 99.5002V58.0418C91.209 55.8427 92.0826 53.7337 93.6376 52.1787C95.1925 50.6237 97.3016 49.7502 99.5006 49.7502Z" fill="#8C8745"/>
</svg>
