<svg width="199" height="199" viewBox="0 0 199 199" fill="none" xmlns="http://www.w3.org/2000/svg">
<path d="M99.5006 16.5835C145.296 16.5835 182.417 53.7053 182.417 99.5002C182.417 145.295 145.296 182.417 99.5006 182.417C53.7058 182.417 16.584 145.295 16.584 99.5002C16.584 53.7053 53.7058 16.5835 99.5006 16.5835ZM99.5006 33.1668C81.908 33.1668 65.0358 40.1555 52.5959 52.5954C40.156 65.0353 33.1673 81.9075 33.1673 99.5002C33.1673 117.093 40.156 133.965 52.5959 146.405C65.0358 158.845 81.908 165.833 99.5006 165.833C117.093 165.833 133.965 158.845 146.405 146.405C158.845 133.965 165.834 117.093 165.834 99.5002C165.834 81.9075 158.845 65.0353 146.405 52.5954C133.965 40.1555 117.093 33.1668 99.5006 33.1668ZM99.5006 49.7502C101.532 49.7504 103.492 50.496 105.009 51.8456C106.527 53.1951 107.497 55.0547 107.734 57.0717L107.792 58.0418V96.0674L130.238 118.513C131.725 120.005 132.588 122.007 132.653 124.113C132.717 126.219 131.977 128.27 130.584 129.85C129.191 131.43 127.248 132.421 125.151 132.62C123.054 132.82 120.959 132.214 119.293 130.926L118.513 130.237L93.6384 105.362C92.3497 104.073 91.5221 102.394 91.2836 100.586L91.209 99.5002V58.0418C91.209 55.8427 92.0826 53.7337 93.6376 52.1787C95.1925 50.6237 97.3016 49.7502 99.5006 49.7502Z" fill="#8C8745"/>
<path d="M146.8 188V184.46L154.227 177.957C154.784 177.454 155.258 176.993 155.649 176.575C156.04 176.151 156.339 175.727 156.544 175.303C156.75 174.872 156.852 174.404 156.852 173.901C156.852 173.337 156.73 172.857 156.484 172.459C156.239 172.054 155.901 171.743 155.47 171.524C155.039 171.305 154.545 171.196 153.989 171.196C153.425 171.196 152.931 171.312 152.507 171.544C152.083 171.769 151.751 172.098 151.513 172.528C151.281 172.959 151.165 173.483 151.165 174.099H146.501C146.501 172.714 146.813 171.518 147.436 170.51C148.059 169.502 148.934 168.727 150.061 168.183C151.195 167.633 152.51 167.358 154.009 167.358C155.553 167.358 156.895 167.616 158.035 168.134C159.176 168.651 160.057 169.373 160.68 170.301C161.31 171.223 161.625 172.293 161.625 173.513C161.625 174.288 161.469 175.057 161.158 175.82C160.846 176.582 160.286 177.424 159.477 178.345C158.675 179.267 157.535 180.37 156.057 181.656L153.621 183.903V184.033H161.874V188H146.8ZM163.409 184.619V180.781L171.751 167.636H175.162V172.847H173.183L168.301 180.582V180.741H180.382V184.619H163.409ZM173.243 188V183.446L173.342 181.766V167.636H177.946V188H173.243ZM187.304 179.29V188H182.442V167.636H187.145V175.531H187.314C187.659 174.59 188.222 173.854 189.005 173.324C189.793 172.794 190.758 172.528 191.898 172.528C192.972 172.528 193.907 172.767 194.702 173.244C195.498 173.715 196.114 174.381 196.552 175.243C196.996 176.105 197.214 177.112 197.208 178.266V188H192.346V179.22C192.352 178.372 192.14 177.709 191.709 177.232C191.278 176.754 190.672 176.516 189.89 176.516C189.379 176.516 188.928 176.628 188.537 176.854C188.153 177.072 187.851 177.387 187.632 177.798C187.42 178.209 187.311 178.706 187.304 179.29Z" fill="#8C8745"/>
</svg>
